<?xml version="1.0" encoding="UTF-8"?>
<svg width="24px" height="24px" viewBox="0 0 24 24" version="1.1" xmlns="http://www.w3.org/2000/svg" xmlns:xlink="http://www.w3.org/1999/xlink">
    <title>Icons/ic_filter</title>
    <g id="Icons/ic_filter" stroke="none" stroke-width="1" fill="none" fill-rule="evenodd">
        <path d="M18.5,4.25 C18.5845273,4.25 18.6684465,4.26428902 18.7482106,4.29226312 C19.258964,4.47138959 19.6580889,4.8767725 19.8292483,5.39025058 C19.9813899,5.84667554 19.9381897,6.34284624 19.7152204,6.76334756 L19.6232106,6.91726312 L19.5549551,7.0045046 L14.75,12.288 L14.75,19 C14.75,19.581679 14.1249943,19.9283983 13.6392571,19.6580207 L13.55,19.6 L9.55,16.6 C9.38812482,16.4785936 9.28334178,16.2979338 9.25670735,16.1001335 L9.25,16 L9.25,12.29 L4.44504494,7.0045046 L4.37678937,6.91726312 C4.07566258,6.46750995 3.99959237,5.90372866 4.17075173,5.39025058 C4.32479515,4.9281203 4.6634907,4.55354712 5.10202856,4.3526706 L5.30062029,4.27679072 L5.39822944,4.25684662 L5.44880019,4.25155995 L18.5,4.25 Z M18.325,5.75 L5.674,5.75 L5.65280112,5.76825286 L5.61796172,5.81273588 L5.59377668,5.86459223 C5.57543817,5.91960773 5.57696633,5.97866547 5.59702484,6.03186152 L5.61,6.057 L10.5549551,11.4954954 C10.6553579,11.6059386 10.719945,11.7431479 10.7417637,11.8891401 L10.75,12 L10.75,15.625 L13.25,17.5 L13.25,12 C13.25,11.8507404 13.2945065,11.7057678 13.3765669,11.5830655 L13.4450449,11.4954954 L18.389,6.057 L18.4029752,6.03186152 C18.4163475,5.99639748 18.4214841,5.95832826 18.4179891,5.92058833 L18.4062233,5.86459223 C18.3939977,5.82791522 18.3736304,5.79509876 18.3471989,5.76825286 L18.325,5.75 Z" id="Path" fill="#EC4D2F"></path>
    </g>
</svg>