<?xml version="1.0" encoding="UTF-8"?>
<svg width="24px" height="24px" viewBox="0 0 24 24" version="1.1" xmlns="http://www.w3.org/2000/svg" xmlns:xlink="http://www.w3.org/1999/xlink">
    <title>Icons/ic_sortby</title>
    <g id="Icons/ic_sortby" stroke="none" stroke-width="1" fill="none" fill-rule="evenodd">
        <path d="M7,4.25 L7.06946949,4.25317463 L7.17136702,4.26973472 L7.23928365,4.28898031 L7.29813864,4.31160159 L7.36904532,4.34686081 L7.45830264,4.40627192 L7.53033009,4.46966991 L11.5303301,8.46966991 C11.8232233,8.76256313 11.8232233,9.23743687 11.5303301,9.53033009 C11.2640635,9.79659665 10.8473998,9.8208027 10.5537883,9.60294824 L10.4696699,9.53033009 L7.75,6.811 L7.75,19 C7.75,19.4142136 7.41421356,19.75 7,19.75 C6.62030423,19.75 6.30650904,19.4678461 6.25684662,19.1017706 L6.25,19 L6.25,6.811 L3.53033009,9.53033009 C3.26406352,9.79659665 2.84739984,9.8208027 2.55378835,9.60294824 L2.46966991,9.53033009 C2.20340335,9.26406352 2.1791973,8.84739984 2.39705176,8.55378835 L2.46966991,8.46966991 L6.46966991,4.46966991 C6.50411092,4.43522891 6.54106819,4.40483779 6.57994996,4.37849655 L6.67482849,4.3239304 L6.76133534,4.28881291 L6.863702,4.26241813 L6.95294594,4.25146789 L7,4.25 Z M17,4.25 C17.3796958,4.25 17.693491,4.53215388 17.7431534,4.89822944 L17.75,5 L17.75,17.189 L20.4696699,14.4696699 C20.7359365,14.2034034 21.1526002,14.1791973 21.4462117,14.3970518 L21.5303301,14.4696699 C21.7965966,14.7359365 21.8208027,15.1526002 21.6029482,15.4462117 L21.5303301,15.5303301 L17.5303301,19.5303301 C17.4958891,19.5647711 17.4589318,19.5951622 17.42005,19.6215034 L17.3251715,19.6760696 L17.2386647,19.7111871 L17.136298,19.7375819 L17.0514866,19.7482459 L16.9485764,19.7482459 L16.828633,19.7302653 L16.7607164,19.7110197 L16.7018614,19.6883984 L16.6309547,19.6531392 L16.5537883,19.6029482 C16.5205706,19.5778288 16.4942698,19.5549299 16.4696699,19.5303301 L12.4696699,15.5303301 C12.1767767,15.2374369 12.1767767,14.7625631 12.4696699,14.4696699 C12.7359365,14.2034034 13.1526002,14.1791973 13.4462117,14.3970518 L13.5303301,14.4696699 L16.25,17.189 L16.25,5 C16.25,4.58578644 16.5857864,4.25 17,4.25 Z" id="Combined-Shape" fill="#EC4D2F"></path>
    </g>
</svg>